PathFileType	4	(X/Y/Z)	8_coords_data.trc
DataRate	CameraRate	NumFrames	NumMarkers	Units	OrigDataRate	OrigDataStartFrame	OrigNumFrames
30.0	30.0	6	21	m	30.0	42	62
Frame#	Time	THUMB_TIP	THUMB_IP	THUMB_MCP	THUMB_CMC	INDEX_TIP	INDEX_DIP	INDEX_PIP	INDEX_MCP	MIDDLE_TIP	MIDDLE_DIP	MIDDLE_PIP	MIDDLE_MCP	RING_TIP	RING_DIP	RING_PIP	RING_MCP	PINKY_TIP	PINKY_DIP	PINKY_PIP	PINKY_MCP	WRIST
X1	Y1	Z1	X2	Y2	Z2	X3	Y3	Z3	X4	Y4	Z4	X5	Y5	Z5	X6	Y6	Z6	X7	Y7	Z7	X8	Y8	Z8	X9	Y9	Z9	X10	Y10	Z10	X11	Y11	Z11	X12	Y12	Z12	X13	Y13	Z13	X14	Y14	Z14	X15	Y15	Z15	X16	Y16	Z16	X17	Y17	Z17	X18	Y18	Z18	X19	Y19	Z19	X20	Y20	Z20	X21	Y21	Z21
41	1.3666666666666667	-0.008080599784851074	-0.0866802978515625	1.0123900146484375	-0.011440099716186524	-0.06675859832763673	1.0298199462890625	-0.015407199859619141	-0.04625400161743164	1.0466400146484376	-0.01777560043334961	-0.015958000183105468	1.0588499755859375	0.010558199882507325	-0.06044329833984375	0.938739990234375	-0.00041175100207328704	-0.054729801177978515	0.956531005859375	-0.012414299964904785	-0.04861190032958984	0.9742479858398437	-0.023487600326538086	-0.034289600372314454	1.006760009765625	0.00917630958557129	-0.027595800399780275	0.9193480224609375	-0.0014708000421524042	-0.024795799255371093	0.94081201171875	-0.015983200073242186	-0.02094230079650879	0.963948974609375	-0.025782800674438475	-0.013604499816894532	0.999927978515625	0.011443900108337403	0.00451738977432251	0.9267999877929688	-0.000989528000354766	0.005764599800109863	0.9463099975585938	-0.014847900390625	0.006667819976806641	0.96756298828125	-0.02189889907836914	0.005911449909210205	1.0007100219726563	0.016322200775146484	0.04222560119628906	0.9566129760742188	0.0045646800994873045	0.037113998413085936	0.9718289794921875	-0.005787010192871094	0.03205609893798828	0.985177978515625	-0.01668619918823242	0.023015600204467773	1.0066400146484376	-0.041125301361083985	0.012377699851989747	1.070449951171875
42	1.4	-0.007457699775695801	-0.08608170318603516	1.0121699829101563	-0.011182499885559081	-0.06645249938964844	1.0298599853515624	-0.01528030014038086	-0.046273998260498043	1.0468499755859375	-0.017697999954223633	-0.01599829959869385	1.05906005859375	0.011084799766540527	-0.0570530014038086	0.9379810180664062	-0.00019333800673484802	-0.05234939956665039	0.9558699951171875	-0.012383500099182128	-0.04708340072631836	0.9739010009765625	-0.023441200256347657	-0.034404800415039065	1.0069400024414064	0.010990200042724609	-0.027611400604248045	0.920218017578125	-0.00018200199306011203	-0.024817899703979494	0.941343017578125	-0.015164999961853028	-0.021000499725341796	0.964239013671875	-0.02571739959716797	-0.01378890037536621	1.0001799926757813	0.012932700157165527	0.002992700099945068	0.9275709838867188	0.00021962000429630202	0.004567749977111816	0.9467000122070313	-0.01409689998626709	0.0057519497871398925	0.9676530151367188	-0.021890600204467772	0.0056433300971984865	1.0010499877929688	0.015612099647521973	0.038378799438476566	0.9548779907226562	0.003985500097274781	0.03444369888305664	0.9705590209960937	-0.006290400028228759	0.030320499420166017	0.984375	-0.016845699310302734	0.022868900299072265	1.0067999877929688	-0.04110739898681641	0.012419300079345703	1.0705400390625
43	1.4333333333333333	-0.00615250015258789	-0.08482230377197265	1.0113200073242188	-0.010503899574279786	-0.06583740234375	1.029489990234375	-0.014960800170898438	-0.04619480133056641	1.0467900390625	-0.017621400833129883	-0.016036100387573242	1.0591099853515624	0.011928600311279297	-0.052279300689697265	0.9369149780273438	0.00040681600570678704	-0.04879710006713867	0.9549310302734375	-0.012048199653625488	-0.044652400970458986	0.9731610107421875	-0.023706899642944337	-0.03423640060424805	1.0071699829101564	0.012830900192260743	-0.026578300476074217	0.9210029907226562	0.00118818998336792	-0.02402239990234375	0.9418140258789063	-0.01430720043182373	-0.020416500091552735	0.9644509887695313	-0.025561899185180665	-0.01375100040435791	1.000469970703125	0.01449810028076172	0.0020055499076843263	0.92847900390625	0.001426030039787292	0.0038245599269866944	0.9472210083007813	-0.01324530029296875	0.005218269824981689	0.967916015625	-0.02176409912109375	0.005435190200805664	1.001530029296875	0.015440199851989746	0.03293920135498047	0.953343994140625	0.003903899908065796	0.030608699798583983	0.9695989990234375	-0.0062814998626708985	0.027819400787353517	0.9839140014648438	-0.0167367000579834	0.02261129951477051	1.0072999877929687	-0.040999900817871096	0.01235140037536621	1.0705999755859374
44	1.4666666666666666	-0.001890769958496093	-0.0815522003173828	1.0092100219726563	-0.007920340061187744	-0.06423560333251953	1.0283900146484375	-0.01385849952697754	-0.04568389892578125	1.046300048828125	-0.017360099792480467	-0.015901700019836425	1.059050048828125	0.012523900032043457	-0.04830279922485352	0.9362219848632812	0.000778698980808258	-0.045756999969482424	0.9543389892578125	-0.011815299987792969	-0.042516300201416016	0.9726690063476563	-0.023852699279785155	-0.034008201599121095	1.0068800048828126	0.014326600074768067	-0.025174699783325195	0.9216710205078125	0.002161760091781616	-0.022896600723266602	0.9420590209960937	-0.0136899995803833	-0.01961910057067871	0.9644130249023437	-0.025640100479125977	-0.013540300369262695	1.0007000122070313	0.016232200622558594	0.001452209949493408	0.929635986328125	0.0027608199119567873	0.003410190105438232	0.9478330078125	-0.012396200180053711	0.004926609992980957	0.9682490234375	-0.021826200485229492	0.005390880107879639	1.0021400146484376	0.01523330020904541	0.028537799835205078	0.9525780029296875	0.0038294699192047118	0.02750629997253418	0.9691270141601562	-0.006211609840393067	0.02586790084838867	0.9836920166015625	-0.016487600326538086	0.022502099990844727	1.00775	-0.041018199920654294	0.012316100120544434	1.0706199951171875
45	1.5	0.004206309795379639	-0.07662809753417969	1.0074500122070313	-0.004236519813537598	-0.06179669952392578	1.0276199951171876	-0.01215719985961914	-0.04481489944458008	1.0460899658203124	-0.01697489929199219	-0.015494799613952637	1.0591199951171875	0.012214799880981446	-0.045359500885009764	0.9353569946289062	0.0005758789777755731	-0.043411800384521484	0.9536380004882813	-0.011817099571228028	-0.04083990097045898	0.9721220092773437	-0.023788799285888673	-0.03371950149536133	1.006760009765625	0.015140600204467773	-0.024077299118041993	0.9220759887695312	0.0027940199375152586	-0.02194129943847656	0.94214501953125	-0.013326899528503418	-0.01894529914855957	0.9643829956054687	-0.025696699142456054	-0.013282500267028808	1.0009299926757813	0.017283899307250977	0.001139629960060119	0.9303040161132813	0.0035296900272369382	0.003175479888916015	0.9482960205078125	-0.011920599937438965	0.004843729972839356	0.968531005859375	-0.022024700164794922	0.0055914602279663085	1.00275	0.01510949993133545	0.026178300857543944	0.9523150024414062	0.0038095099925994874	0.02588559913635254	0.969114013671875	-0.006231689929962158	0.02489229965209961	0.983822998046875	-0.01647710037231445	0.022602300643920898	1.0080700073242188	-0.041122100830078126	0.012341500282287598	1.0706700439453125
46	1.5333333333333334	0.007622900009155273	-0.07275090026855469	1.0063099975585938	-0.002238759994506836	-0.059987998962402346	1.02727001953125	-0.011211400032043456	-0.043996498107910155	1.046050048828125	-0.01678409957885742	-0.01520170021057129	1.0591199951171875	0.012248600006103515	-0.04401210021972656	0.9353309936523437	0.0006178050041198731	-0.04234870147705078	0.953635986328125	-0.0117878999710083	-0.03995080184936523	0.9721740112304688	-0.023724899291992188	-0.03331439971923828	1.0069199829101563	0.0164822998046875	-0.02300629997253418	0.922927001953125	0.0036745400428771975	-0.021055099487304687	0.9426580200195313	-0.012861599922180176	-0.01819099998474121	0.9645969848632813	-0.025647300720214844	-0.012915499687194824	1.0011400146484375	0.018662099838256837	0.0009287390112876891	0.9312949829101562	0.0045820999145507815	0.003117980003356933	0.94893701171875	-0.011285400390625	0.004878809928894043	0.9688939819335938	-0.022034400939941405	0.005835430145263672	1.0031599731445313	0.015362799644470215	0.024738000869750976	0.9525029907226562	0.00401501989364624	0.0249783992767334	0.9692869873046875	-0.006004829883575438	0.024382299423217773	0.9840050048828125	-0.01639500045776367	0.02278890037536621	1.0084500122070312	-0.04114459991455078	0.012506500244140625	1.070719970703125
